<mxfile host="Electron" modified="2023-11-07T16:59:28.020Z" agent="Mozilla/5.0 (Windows NT 10.0; Win64; x64) AppleWebKit/537.36 (KHTML, like Gecko) draw.io/22.0.2 Chrome/114.0.5735.289 Electron/25.8.4 Safari/537.36" etag="KaCeNqcsVzXT9hJ3c3se" version="22.0.2" type="device">
  <diagram name="Página-1" id="aEzqh5EhOarqBzvGGdQw">
    <mxGraphModel dx="1195" dy="1866" grid="1" gridSize="10" guides="1" tooltips="1" connect="1" arrows="1" fold="1" page="1" pageScale="1" pageWidth="827" pageHeight="1169" math="0" shadow="0">
      <root>
        <mxCell id="0" />
        <mxCell id="1" parent="0" />
        <mxCell id="iQJFjGNX1Mibko2KRYib-2" value="" style="rounded=0;whiteSpace=wrap;html=1;rotation=90;" vertex="1" parent="1">
          <mxGeometry y="60" width="640" height="450" as="geometry" />
        </mxCell>
        <mxCell id="iQJFjGNX1Mibko2KRYib-3" value="Player" style="shape=umlActor;verticalLabelPosition=bottom;verticalAlign=top;html=1;outlineConnect=0;" vertex="1" parent="1">
          <mxGeometry x="20" y="120" width="20" height="40" as="geometry" />
        </mxCell>
        <mxCell id="iQJFjGNX1Mibko2KRYib-4" value="Sistema" style="shape=umlActor;verticalLabelPosition=bottom;verticalAlign=top;html=1;outlineConnect=0;" vertex="1" parent="1">
          <mxGeometry x="600" y="130" width="20" height="40" as="geometry" />
        </mxCell>
        <mxCell id="iQJFjGNX1Mibko2KRYib-5" value="Gerador de Número Aleatório" style="shape=umlActor;verticalLabelPosition=bottom;verticalAlign=top;html=1;outlineConnect=0;" vertex="1" parent="1">
          <mxGeometry x="600" y="230" width="20" height="40" as="geometry" />
        </mxCell>
        <mxCell id="iQJFjGNX1Mibko2KRYib-6" value="Escolher Personagens" style="ellipse;whiteSpace=wrap;html=1;" vertex="1" parent="1">
          <mxGeometry x="130" y="60" width="80" height="50" as="geometry" />
        </mxCell>
        <mxCell id="iQJFjGNX1Mibko2KRYib-27" style="edgeStyle=orthogonalEdgeStyle;rounded=0;orthogonalLoop=1;jettySize=auto;html=1;exitX=1;exitY=0;exitDx=0;exitDy=0;entryX=0;entryY=0.5;entryDx=0;entryDy=0;strokeColor=none;" edge="1" parent="1" source="iQJFjGNX1Mibko2KRYib-8" target="iQJFjGNX1Mibko2KRYib-12">
          <mxGeometry relative="1" as="geometry" />
        </mxCell>
        <mxCell id="iQJFjGNX1Mibko2KRYib-28" style="edgeStyle=orthogonalEdgeStyle;rounded=0;orthogonalLoop=1;jettySize=auto;html=1;entryX=0;entryY=0.5;entryDx=0;entryDy=0;dashed=1;" edge="1" parent="1" source="iQJFjGNX1Mibko2KRYib-8" target="iQJFjGNX1Mibko2KRYib-12">
          <mxGeometry relative="1" as="geometry" />
        </mxCell>
        <mxCell id="iQJFjGNX1Mibko2KRYib-32" value="&amp;lt;&amp;lt;incluir&amp;gt;&amp;gt;" style="edgeLabel;html=1;align=center;verticalAlign=middle;resizable=0;points=[];" vertex="1" connectable="0" parent="iQJFjGNX1Mibko2KRYib-28">
          <mxGeometry x="0.0333" relative="1" as="geometry">
            <mxPoint as="offset" />
          </mxGeometry>
        </mxCell>
        <mxCell id="iQJFjGNX1Mibko2KRYib-8" value="Começar jogo" style="ellipse;whiteSpace=wrap;html=1;" vertex="1" parent="1">
          <mxGeometry x="130" y="130" width="80" height="50" as="geometry" />
        </mxCell>
        <mxCell id="iQJFjGNX1Mibko2KRYib-9" value="Mover personagem" style="ellipse;whiteSpace=wrap;html=1;" vertex="1" parent="1">
          <mxGeometry x="130" y="200" width="80" height="50" as="geometry" />
        </mxCell>
        <mxCell id="iQJFjGNX1Mibko2KRYib-10" value="Atacar" style="ellipse;whiteSpace=wrap;html=1;" vertex="1" parent="1">
          <mxGeometry x="130" y="270" width="80" height="50" as="geometry" />
        </mxCell>
        <mxCell id="iQJFjGNX1Mibko2KRYib-11" value="Conjurar Magia" style="ellipse;whiteSpace=wrap;html=1;" vertex="1" parent="1">
          <mxGeometry x="120" y="340" width="80" height="50" as="geometry" />
        </mxCell>
        <mxCell id="iQJFjGNX1Mibko2KRYib-12" value="Mostrar vida" style="ellipse;whiteSpace=wrap;html=1;" vertex="1" parent="1">
          <mxGeometry x="290" y="50" width="80" height="50" as="geometry" />
        </mxCell>
        <mxCell id="iQJFjGNX1Mibko2KRYib-13" value="Determinar Resultado" style="ellipse;whiteSpace=wrap;html=1;" vertex="1" parent="1">
          <mxGeometry x="290" y="330" width="80" height="50" as="geometry" />
        </mxCell>
        <mxCell id="iQJFjGNX1Mibko2KRYib-17" value="" style="endArrow=none;html=1;rounded=0;exitX=1;exitY=0.3333333333333333;exitDx=0;exitDy=0;exitPerimeter=0;entryX=0;entryY=0.5;entryDx=0;entryDy=0;" edge="1" parent="1" source="iQJFjGNX1Mibko2KRYib-3" target="iQJFjGNX1Mibko2KRYib-6">
          <mxGeometry width="50" height="50" relative="1" as="geometry">
            <mxPoint x="390" y="320" as="sourcePoint" />
            <mxPoint x="440" y="270" as="targetPoint" />
          </mxGeometry>
        </mxCell>
        <mxCell id="iQJFjGNX1Mibko2KRYib-18" value="" style="endArrow=none;html=1;rounded=0;exitX=1;exitY=0.3333333333333333;exitDx=0;exitDy=0;exitPerimeter=0;entryX=0;entryY=0.5;entryDx=0;entryDy=0;" edge="1" parent="1" source="iQJFjGNX1Mibko2KRYib-3" target="iQJFjGNX1Mibko2KRYib-8">
          <mxGeometry width="50" height="50" relative="1" as="geometry">
            <mxPoint x="50" y="143" as="sourcePoint" />
            <mxPoint x="140" y="95" as="targetPoint" />
          </mxGeometry>
        </mxCell>
        <mxCell id="iQJFjGNX1Mibko2KRYib-19" value="" style="endArrow=none;html=1;rounded=0;entryX=0;entryY=0.5;entryDx=0;entryDy=0;" edge="1" parent="1" target="iQJFjGNX1Mibko2KRYib-9">
          <mxGeometry width="50" height="50" relative="1" as="geometry">
            <mxPoint x="40" y="130" as="sourcePoint" />
            <mxPoint x="150" y="105" as="targetPoint" />
          </mxGeometry>
        </mxCell>
        <mxCell id="iQJFjGNX1Mibko2KRYib-20" value="" style="endArrow=none;html=1;rounded=0;entryX=0;entryY=0.5;entryDx=0;entryDy=0;" edge="1" parent="1" target="iQJFjGNX1Mibko2KRYib-10">
          <mxGeometry width="50" height="50" relative="1" as="geometry">
            <mxPoint x="40" y="130" as="sourcePoint" />
            <mxPoint x="160" y="115" as="targetPoint" />
          </mxGeometry>
        </mxCell>
        <mxCell id="iQJFjGNX1Mibko2KRYib-21" value="" style="endArrow=none;html=1;rounded=0;entryX=0;entryY=0.5;entryDx=0;entryDy=0;" edge="1" parent="1" target="iQJFjGNX1Mibko2KRYib-11">
          <mxGeometry width="50" height="50" relative="1" as="geometry">
            <mxPoint x="40" y="130" as="sourcePoint" />
            <mxPoint x="170" y="125" as="targetPoint" />
          </mxGeometry>
        </mxCell>
        <mxCell id="iQJFjGNX1Mibko2KRYib-22" value="" style="endArrow=none;html=1;rounded=0;entryX=0;entryY=0.3333333333333333;entryDx=0;entryDy=0;entryPerimeter=0;exitX=1;exitY=0.5;exitDx=0;exitDy=0;" edge="1" parent="1" source="iQJFjGNX1Mibko2KRYib-13" target="iQJFjGNX1Mibko2KRYib-5">
          <mxGeometry width="50" height="50" relative="1" as="geometry">
            <mxPoint x="390" y="320" as="sourcePoint" />
            <mxPoint x="440" y="270" as="targetPoint" />
          </mxGeometry>
        </mxCell>
        <mxCell id="iQJFjGNX1Mibko2KRYib-23" value="" style="endArrow=none;html=1;rounded=0;entryX=0;entryY=0.3333333333333333;entryDx=0;entryDy=0;entryPerimeter=0;exitX=1;exitY=0.5;exitDx=0;exitDy=0;" edge="1" parent="1" source="iQJFjGNX1Mibko2KRYib-12" target="iQJFjGNX1Mibko2KRYib-4">
          <mxGeometry width="50" height="50" relative="1" as="geometry">
            <mxPoint x="390" y="320" as="sourcePoint" />
            <mxPoint x="440" y="270" as="targetPoint" />
          </mxGeometry>
        </mxCell>
        <mxCell id="iQJFjGNX1Mibko2KRYib-24" value="" style="endArrow=none;html=1;rounded=0;exitX=1;exitY=0.5;exitDx=0;exitDy=0;" edge="1" parent="1" source="iQJFjGNX1Mibko2KRYib-8">
          <mxGeometry width="50" height="50" relative="1" as="geometry">
            <mxPoint x="390" y="320" as="sourcePoint" />
            <mxPoint x="600" y="140" as="targetPoint" />
            <Array as="points">
              <mxPoint x="270" y="170" />
            </Array>
          </mxGeometry>
        </mxCell>
        <mxCell id="iQJFjGNX1Mibko2KRYib-29" style="edgeStyle=orthogonalEdgeStyle;rounded=0;orthogonalLoop=1;jettySize=auto;html=1;dashed=1;exitX=1;exitY=0.5;exitDx=0;exitDy=0;" edge="1" parent="1" source="iQJFjGNX1Mibko2KRYib-9" target="iQJFjGNX1Mibko2KRYib-13">
          <mxGeometry relative="1" as="geometry">
            <mxPoint x="220" y="165" as="sourcePoint" />
            <mxPoint x="300" y="85" as="targetPoint" />
          </mxGeometry>
        </mxCell>
        <mxCell id="iQJFjGNX1Mibko2KRYib-33" value="&amp;lt;&amp;lt;incluir&amp;gt;&amp;gt;" style="edgeLabel;html=1;align=center;verticalAlign=middle;resizable=0;points=[];" vertex="1" connectable="0" parent="iQJFjGNX1Mibko2KRYib-29">
          <mxGeometry x="-0.5778" y="1" relative="1" as="geometry">
            <mxPoint as="offset" />
          </mxGeometry>
        </mxCell>
        <mxCell id="iQJFjGNX1Mibko2KRYib-30" style="edgeStyle=orthogonalEdgeStyle;rounded=0;orthogonalLoop=1;jettySize=auto;html=1;dashed=1;exitX=1;exitY=0.5;exitDx=0;exitDy=0;entryX=0.271;entryY=-0.003;entryDx=0;entryDy=0;entryPerimeter=0;" edge="1" parent="1" source="iQJFjGNX1Mibko2KRYib-10" target="iQJFjGNX1Mibko2KRYib-13">
          <mxGeometry relative="1" as="geometry">
            <mxPoint x="220" y="235" as="sourcePoint" />
            <mxPoint x="340" y="340" as="targetPoint" />
          </mxGeometry>
        </mxCell>
        <mxCell id="iQJFjGNX1Mibko2KRYib-34" value="&amp;nbsp;&amp;lt;&amp;lt;incluir&amp;gt;&amp;gt;" style="edgeLabel;html=1;align=center;verticalAlign=middle;resizable=0;points=[];" vertex="1" connectable="0" parent="iQJFjGNX1Mibko2KRYib-30">
          <mxGeometry x="-0.4506" y="-1" relative="1" as="geometry">
            <mxPoint as="offset" />
          </mxGeometry>
        </mxCell>
        <mxCell id="iQJFjGNX1Mibko2KRYib-31" style="edgeStyle=orthogonalEdgeStyle;rounded=0;orthogonalLoop=1;jettySize=auto;html=1;dashed=1;exitX=1;exitY=0.5;exitDx=0;exitDy=0;entryX=-0.031;entryY=0.68;entryDx=0;entryDy=0;entryPerimeter=0;" edge="1" parent="1" source="iQJFjGNX1Mibko2KRYib-11" target="iQJFjGNX1Mibko2KRYib-13">
          <mxGeometry relative="1" as="geometry">
            <mxPoint x="220" y="235" as="sourcePoint" />
            <mxPoint x="340" y="340" as="targetPoint" />
          </mxGeometry>
        </mxCell>
        <mxCell id="iQJFjGNX1Mibko2KRYib-35" value="&amp;lt;&amp;lt;incluir&amp;gt;&amp;gt;" style="edgeLabel;html=1;align=center;verticalAlign=middle;resizable=0;points=[];" vertex="1" connectable="0" parent="iQJFjGNX1Mibko2KRYib-31">
          <mxGeometry x="-0.0873" y="-2" relative="1" as="geometry">
            <mxPoint as="offset" />
          </mxGeometry>
        </mxCell>
        <mxCell id="iQJFjGNX1Mibko2KRYib-36" value="Atacar Criticamente" style="ellipse;whiteSpace=wrap;html=1;" vertex="1" parent="1">
          <mxGeometry x="260" y="420" width="80" height="50" as="geometry" />
        </mxCell>
        <mxCell id="iQJFjGNX1Mibko2KRYib-37" value="Ficar preso armadilha" style="ellipse;whiteSpace=wrap;html=1;" vertex="1" parent="1">
          <mxGeometry x="370" y="190" width="90" height="50" as="geometry" />
        </mxCell>
        <mxCell id="iQJFjGNX1Mibko2KRYib-38" style="edgeStyle=orthogonalEdgeStyle;rounded=0;orthogonalLoop=1;jettySize=auto;html=1;dashed=1;exitX=0;exitY=0;exitDx=0;exitDy=0;entryX=1;entryY=0;entryDx=0;entryDy=0;" edge="1" parent="1" source="iQJFjGNX1Mibko2KRYib-37" target="iQJFjGNX1Mibko2KRYib-9">
          <mxGeometry relative="1" as="geometry">
            <mxPoint x="220" y="235" as="sourcePoint" />
            <mxPoint x="340" y="340" as="targetPoint" />
          </mxGeometry>
        </mxCell>
        <mxCell id="iQJFjGNX1Mibko2KRYib-41" value="&amp;lt;&amp;lt;estender&amp;gt;&amp;gt;" style="edgeLabel;html=1;align=center;verticalAlign=middle;resizable=0;points=[];" vertex="1" connectable="0" parent="iQJFjGNX1Mibko2KRYib-38">
          <mxGeometry x="-0.4799" y="-1" relative="1" as="geometry">
            <mxPoint as="offset" />
          </mxGeometry>
        </mxCell>
        <mxCell id="iQJFjGNX1Mibko2KRYib-50" style="edgeStyle=orthogonalEdgeStyle;rounded=0;orthogonalLoop=1;jettySize=auto;html=1;dashed=1;exitX=0;exitY=0.5;exitDx=0;exitDy=0;entryX=0.948;entryY=0.73;entryDx=0;entryDy=0;entryPerimeter=0;" edge="1" parent="1" source="iQJFjGNX1Mibko2KRYib-36" target="iQJFjGNX1Mibko2KRYib-10">
          <mxGeometry relative="1" as="geometry">
            <mxPoint x="403" y="217" as="sourcePoint" />
            <mxPoint x="218" y="227" as="targetPoint" />
          </mxGeometry>
        </mxCell>
        <mxCell id="iQJFjGNX1Mibko2KRYib-51" value="&amp;lt;&amp;lt;estender&amp;gt;&amp;gt;" style="edgeLabel;html=1;align=center;verticalAlign=middle;resizable=0;points=[];" vertex="1" connectable="0" parent="iQJFjGNX1Mibko2KRYib-50">
          <mxGeometry x="-0.4799" y="-1" relative="1" as="geometry">
            <mxPoint as="offset" />
          </mxGeometry>
        </mxCell>
      </root>
    </mxGraphModel>
  </diagram>
</mxfile>
